<?xml version="1.0" standalone="no"?>
<!DOCTYPE svg PUBLIC "-//W3C//DTD SVG 20010904//EN"
 "http://www.w3.org/TR/2001/REC-SVG-20010904/DTD/svg10.dtd">
<svg version="1.0" xmlns="http://www.w3.org/2000/svg"
 width="96.000000pt" height="96.000000pt" viewBox="0 0 96.000000 96.000000"
 preserveAspectRatio="xMidYMid meet">

<g transform="translate(0.000000,96.000000) scale(0.100000,-0.100000)"
fill="#000000" stroke="none">
<path d="M165 795 c-16 -29 -27 -56 -25 -58 42 -35 231 -167 239 -167 5 0 15
9 21 19 8 17 5 24 -24 46 -24 18 -44 50 -71 115 -21 50 -40 89 -42 86 -2 -2 1
-32 8 -65 6 -34 9 -64 7 -67 -8 -8 -98 39 -98 50 0 6 5 28 11 49 15 56 7 54
-26 -8z"/>
<path d="M655 750 c-27 -65 -47 -97 -72 -115 -28 -22 -31 -29 -23 -46 6 -10
15 -19 21 -19 7 0 145 96 238 167 3 2 -6 22 -19 46 -25 47 -47 73 -37 45 3 -9
9 -32 12 -51 6 -33 5 -34 -42 -55 -26 -11 -50 -19 -52 -16 -2 2 2 31 9 64 7
33 11 63 8 65 -2 2 -21 -36 -43 -85z"/>
<path d="M150 592 c0 -2 15 -28 33 -58 26 -44 40 -56 77 -69 42 -14 46 -14 57
2 19 25 16 35 -16 81 -28 38 -33 40 -90 44 -34 1 -61 1 -61 0z"/>
<path d="M410 565 l-22 -36 34 -72 c32 -67 33 -75 22 -112 -7 -22 -13 -50 -13
-62 -1 -21 3 -23 55 -23 49 0 55 2 49 19 -34 107 -34 101 3 178 l34 72 -22 36
c-20 32 -25 35 -70 35 -45 0 -50 -3 -70 -35z"/>
<path d="M745 592 c-60 -3 -61 -3 -89 -48 -24 -38 -27 -49 -18 -69 10 -22 13
-23 56 -12 41 11 50 19 82 71 19 32 34 59 32 60 -2 0 -30 0 -63 -2z"/>
<path d="M345 471 c-15 -29 -15 -30 21 -41 19 -7 37 -10 40 -7 7 6 -28 77 -38
77 -4 0 -14 -13 -23 -29z"/>
<path d="M566 464 c-9 -20 -15 -39 -12 -41 2 -3 20 1 40 8 34 12 34 13 20 41
-19 37 -27 35 -48 -8z"/>
<path d="M331 390 c6 -16 12 -30 14 -30 1 0 18 6 36 14 l33 14 -38 16 c-52 22
-57 21 -45 -14z"/>
<path d="M610 413 c-8 -3 -26 -10 -40 -15 l-25 -10 34 -14 c19 -8 35 -13 37
-12 4 5 16 58 13 57 -2 0 -11 -3 -19 -6z"/>
<path d="M380 349 c-34 -14 -33 -11 -14 -70 l18 -54 18 60 c25 84 25 83 -22
64z"/>
<path d="M546 333 c4 -16 12 -46 19 -68 l12 -40 12 43 c7 24 14 49 17 56 3 7
-7 18 -21 24 -39 18 -46 15 -39 -15z"/>
<path d="M405 204 c-3 -20 -5 -37 -3 -38 2 -2 21 -15 42 -29 l39 -26 36 27
c20 14 37 27 39 28 2 1 0 18 -3 38 l-7 36 -68 0 -68 0 -7 -36z"/>
</g>
</svg>
